<svg width="770" height="72" viewBox="0 0 770 72" fill="none" xmlns="http://www.w3.org/2000/svg">
<path d="M34.2 72C27.8 72 22.1333 71.0667 17.2 69.2C12.2667 67.3333 8.33333 64.4 5.4 60.4C2.53333 56.4 0.966667 51.2333 0.7 44.9C0.633333 42.1667 0.6 39.2333 0.6 36.1C0.6 32.9667 0.633333 29.9667 0.7 27.1C0.966667 20.9 2.56667 15.8 5.5 11.8C8.5 7.8 12.4667 4.83333 17.4 2.89999C22.4 0.966662 28 -3.8147e-06 34.2 -3.8147e-06C38.4667 -3.8147e-06 42.5667 0.499996 46.5 1.49999C50.5 2.43333 54.1 3.93333 57.3 6C60.5 8.06666 63.0333 10.7333 64.9 14C66.8333 17.2 67.8333 21.0667 67.9 25.6C67.9 26.2 67.6667 26.7333 67.2 27.2C66.8 27.6 66.3 27.8 65.7 27.8H45.3C44.2333 27.8 43.4333 27.6 42.9 27.2C42.4333 26.7333 42 25.9667 41.6 24.9C40.8667 22.7667 39.8667 21.3333 38.6 20.6C37.3333 19.8667 35.8333 19.5 34.1 19.5C31.9 19.5 30.1333 20.1 28.8 21.3C27.5333 22.4333 26.8333 24.5333 26.7 27.6C26.5 33.0667 26.5 38.6667 26.7 44.4C26.8333 47.4667 27.5333 49.6 28.8 50.8C30.1333 51.9333 31.9 52.5 34.1 52.5C35.8333 52.5 37.3333 52.1 38.6 51.3C39.9333 50.5 40.9333 49.1 41.6 47.1C41.9333 45.9667 42.3667 45.2 42.9 44.8C43.4333 44.4 44.2333 44.2 45.3 44.2H65.7C66.3 44.2 66.8 44.4333 67.2 44.9C67.6667 45.3 67.9 45.8 67.9 46.4C67.8333 50.9333 66.8333 54.8333 64.9 58.1C63.0333 61.3 60.5 63.9333 57.3 66C54.1 68.0667 50.5 69.6 46.5 70.6C42.5667 71.5333 38.4667 72 34.2 72ZM107.44 72C100.907 72 95.1732 71 90.2398 69C85.3732 67 81.5065 64 78.6398 60C75.8398 55.9333 74.3065 50.9333 74.0398 45C73.9732 42.2667 73.9398 39.3667 73.9398 36.3C73.9398 33.2333 73.9732 30.2667 74.0398 27.4C74.3065 21.5333 75.8398 16.5667 78.6398 12.5C81.4398 8.43333 85.3065 5.33333 90.2398 3.2C95.1732 1.06666 100.907 -3.8147e-06 107.44 -3.8147e-06C113.973 -3.8147e-06 119.707 1.06666 124.64 3.2C129.573 5.33333 133.44 8.43333 136.24 12.5C139.107 16.5667 140.64 21.5333 140.84 27.4C140.973 30.2667 141.04 33.2333 141.04 36.3C141.04 39.3667 140.973 42.2667 140.84 45C140.573 50.9333 139.007 55.9333 136.14 60C133.34 64 129.473 67 124.54 69C119.673 71 113.973 72 107.44 72ZM107.44 52.5C109.64 52.5 111.407 51.8667 112.74 50.6C114.073 49.2667 114.773 47.2 114.84 44.4C114.973 41.5333 115.04 38.7 115.04 35.9C115.04 33.1 114.973 30.3333 114.84 27.6C114.773 25.7333 114.407 24.2 113.74 23C113.14 21.8 112.307 20.9333 111.24 20.4C110.173 19.8 108.907 19.5 107.44 19.5C106.04 19.5 104.773 19.8 103.64 20.4C102.573 20.9333 101.707 21.8 101.04 23C100.44 24.2 100.107 25.7333 100.04 27.6C99.9732 30.3333 99.9398 33.1 99.9398 35.9C99.9398 38.7 99.9732 41.5333 100.04 44.4C100.173 47.2 100.873 49.2667 102.14 50.6C103.473 51.8667 105.24 52.5 107.44 52.5ZM181.659 72C175.125 72 169.392 71 164.459 69C159.592 67 155.725 64 152.859 60C150.059 55.9333 148.525 50.9333 148.259 45C148.192 42.2667 148.159 39.3667 148.159 36.3C148.159 33.2333 148.192 30.2667 148.259 27.4C148.525 21.5333 150.059 16.5667 152.859 12.5C155.659 8.43333 159.525 5.33333 164.459 3.2C169.392 1.06666 175.125 -3.8147e-06 181.659 -3.8147e-06C188.192 -3.8147e-06 193.925 1.06666 198.859 3.2C203.792 5.33333 207.659 8.43333 210.459 12.5C213.325 16.5667 214.859 21.5333 215.059 27.4C215.192 30.2667 215.259 33.2333 215.259 36.3C215.259 39.3667 215.192 42.2667 215.059 45C214.792 50.9333 213.225 55.9333 210.359 60C207.559 64 203.692 67 198.759 69C193.892 71 188.192 72 181.659 72ZM181.659 52.5C183.859 52.5 185.625 51.8667 186.959 50.6C188.292 49.2667 188.992 47.2 189.059 44.4C189.192 41.5333 189.259 38.7 189.259 35.9C189.259 33.1 189.192 30.3333 189.059 27.6C188.992 25.7333 188.625 24.2 187.959 23C187.359 21.8 186.525 20.9333 185.459 20.4C184.392 19.8 183.125 19.5 181.659 19.5C180.259 19.5 178.992 19.8 177.859 20.4C176.792 20.9333 175.925 21.8 175.259 23C174.659 24.2 174.325 25.7333 174.259 27.6C174.192 30.3333 174.159 33.1 174.159 35.9C174.159 38.7 174.192 41.5333 174.259 44.4C174.392 47.2 175.092 49.2667 176.359 50.6C177.692 51.8667 179.459 52.5 181.659 52.5ZM226.977 71C226.244 71 225.611 70.7333 225.077 70.2C224.544 69.6667 224.277 69.0333 224.277 68.3V3.7C224.277 2.96666 224.544 2.33333 225.077 1.8C225.611 1.26666 226.244 0.999995 226.977 0.999995H246.077C246.811 0.999995 247.444 1.26666 247.977 1.8C248.511 2.33333 248.777 2.96666 248.777 3.7V23.5L260.077 3.2C260.411 2.66666 260.877 2.16666 261.477 1.7C262.144 1.23333 263.011 0.999995 264.077 0.999995H286.177C286.777 0.999995 287.277 1.23333 287.677 1.7C288.144 2.1 288.377 2.6 288.377 3.2C288.377 3.6 288.277 3.96666 288.077 4.29999L270.077 34.5L289.777 67.7C289.977 67.9667 290.077 68.3333 290.077 68.8C290.077 69.4 289.844 69.9333 289.377 70.4C288.977 70.8 288.477 71 287.877 71H265.077C263.744 71 262.744 70.7 262.077 70.1C261.477 69.4333 261.111 68.9667 260.977 68.7L248.777 46.9V68.3C248.777 69.0333 248.511 69.6667 247.977 70.2C247.444 70.7333 246.811 71 246.077 71H226.977ZM298.462 71C297.728 71 297.095 70.7333 296.562 70.2C296.028 69.6667 295.762 69.0333 295.762 68.3V3.7C295.762 2.96666 296.028 2.33333 296.562 1.8C297.095 1.26666 297.728 0.999995 298.462 0.999995H318.862C319.595 0.999995 320.228 1.26666 320.762 1.8C321.295 2.33333 321.562 2.96666 321.562 3.7V68.3C321.562 69.0333 321.295 69.6667 320.762 70.2C320.228 70.7333 319.595 71 318.862 71H298.462ZM335.278 71C334.545 71 333.911 70.7333 333.378 70.2C332.845 69.6667 332.578 69.0333 332.578 68.3V3.7C332.578 2.96666 332.845 2.33333 333.378 1.8C333.911 1.26666 334.545 0.999995 335.278 0.999995H364.078C370.345 0.999995 375.945 2.06666 380.878 4.2C385.811 6.26666 389.745 9.33333 392.678 13.4C395.678 17.4667 397.278 22.5 397.478 28.5C397.611 31.3667 397.678 33.9 397.678 36.1C397.678 38.2333 397.611 40.6667 397.478 43.4C397.211 49.6667 395.678 54.8667 392.878 59C390.078 63.0667 386.245 66.1 381.378 68.1C376.578 70.0333 370.978 71 364.578 71H335.278ZM357.578 51.5H364.078C365.545 51.5 366.845 51.2333 367.978 50.7C369.178 50.1 370.145 49.2 370.878 48C371.611 46.8 372.011 45.2667 372.078 43.4C372.211 41.4667 372.278 39.7333 372.278 38.2C372.345 36.6667 372.345 35.1333 372.278 33.6C372.278 32 372.211 30.3 372.078 28.5C371.945 25.7 371.045 23.6667 369.378 22.4C367.778 21.1333 365.845 20.5 363.578 20.5H357.578V51.5ZM435.802 72C428.402 72 422.302 71 417.502 69C412.702 67 409.102 64.3667 406.702 61.1C404.302 57.8333 403.035 54.3667 402.902 50.7C402.902 50.1 403.102 49.6 403.502 49.2C403.968 48.7333 404.502 48.5 405.102 48.5H424.102C425.168 48.5 425.968 48.6667 426.502 49C427.102 49.2667 427.735 49.6667 428.402 50.2C429.068 50.6667 429.735 51.1 430.402 51.5C431.135 51.8333 431.935 52.1 432.802 52.3C433.735 52.4333 434.735 52.5 435.802 52.5C438.068 52.5 439.868 52.2667 441.202 51.8C442.602 51.2667 443.302 50.5667 443.302 49.7C443.302 48.9 442.902 48.2333 442.102 47.7C441.368 47.1667 440.068 46.7 438.202 46.3C436.335 45.8333 433.735 45.4 430.402 45C425.135 44.2667 420.568 43.0333 416.702 41.3C412.835 39.5667 409.835 37.2 407.702 34.2C405.635 31.1333 404.602 27.4 404.602 23C404.602 18.4667 405.868 14.4667 408.402 11C411.002 7.53333 414.568 4.83333 419.102 2.89999C423.702 0.966662 429.035 -3.8147e-06 435.102 -3.8147e-06C440.102 -3.8147e-06 444.535 0.666662 448.402 1.99999C452.268 3.26666 455.535 4.96666 458.202 7.09999C460.868 9.16666 462.902 11.4 464.302 13.8C465.702 16.2 466.435 18.5 466.502 20.7C466.502 21.3 466.268 21.8333 465.802 22.3C465.402 22.7 464.935 22.9 464.402 22.9H444.402C443.468 22.9 442.702 22.7667 442.102 22.5C441.568 22.2333 441.002 21.8333 440.402 21.3C440.068 20.9667 439.435 20.6 438.502 20.2C437.635 19.7333 436.502 19.5 435.102 19.5C433.435 19.5 432.202 19.7667 431.402 20.3C430.668 20.7667 430.302 21.4333 430.302 22.3C430.302 22.9 430.602 23.4667 431.202 24C431.802 24.5333 432.902 25 434.502 25.4C436.102 25.8 438.402 26.2 441.402 26.6C448.068 27.4 453.402 28.7 457.402 30.5C461.468 32.2333 464.402 34.5667 466.202 37.5C468.068 40.4333 469.002 44.0667 469.002 48.4C469.002 53.2667 467.535 57.4667 464.602 61C461.735 64.5333 457.802 67.2667 452.802 69.2C447.802 71.0667 442.135 72 435.802 72Z" fill="#9B33BD"/>
<path d="M526.583 72C520.183 72 514.516 71.0667 509.583 69.2C504.649 67.3333 500.716 64.4 497.783 60.4C494.916 56.4 493.349 51.2333 493.083 44.9C493.016 42.1667 492.983 39.2333 492.983 36.1C492.983 32.9667 493.016 29.9667 493.083 27.1C493.349 20.9 494.949 15.8 497.883 11.8C500.883 7.8 504.849 4.83333 509.783 2.89999C514.783 0.966662 520.383 -3.8147e-06 526.583 -3.8147e-06C530.849 -3.8147e-06 534.949 0.499996 538.883 1.49999C542.883 2.43333 546.483 3.93333 549.683 6C552.883 8.06666 555.416 10.7333 557.283 14C559.216 17.2 560.216 21.0667 560.283 25.6C560.283 26.2 560.049 26.7333 559.583 27.2C559.183 27.6 558.683 27.8 558.083 27.8H537.683C536.616 27.8 535.816 27.6 535.283 27.2C534.816 26.7333 534.383 25.9667 533.983 24.9C533.249 22.7667 532.249 21.3333 530.983 20.6C529.716 19.8667 528.216 19.5 526.483 19.5C524.283 19.5 522.516 20.1 521.183 21.3C519.916 22.4333 519.216 24.5333 519.083 27.6C518.883 33.0667 518.883 38.6667 519.083 44.4C519.216 47.4667 519.916 49.6 521.183 50.8C522.516 51.9333 524.283 52.5 526.483 52.5C528.216 52.5 529.716 52.1 530.983 51.3C532.316 50.5 533.316 49.1 533.983 47.1C534.316 45.9667 534.749 45.2 535.283 44.8C535.816 44.4 536.616 44.2 537.683 44.2H558.083C558.683 44.2 559.183 44.4333 559.583 44.9C560.049 45.3 560.283 45.8 560.283 46.4C560.216 50.9333 559.216 54.8333 557.283 58.1C555.416 61.3 552.883 63.9333 549.683 66C546.483 68.0667 542.883 69.6 538.883 70.6C534.949 71.5333 530.849 72 526.583 72ZM570.923 71C570.189 71 569.556 70.7333 569.023 70.2C568.489 69.6667 568.223 69.0333 568.223 68.3V3.7C568.223 2.96666 568.489 2.33333 569.023 1.8C569.556 1.26666 570.189 0.999995 570.923 0.999995H590.923C591.656 0.999995 592.289 1.26666 592.823 1.8C593.356 2.33333 593.623 2.96666 593.623 3.7V50.5H621.323C622.056 50.5 622.689 50.7667 623.223 51.3C623.756 51.8333 624.023 52.4667 624.023 53.2V68.3C624.023 69.0333 623.756 69.6667 623.223 70.2C622.689 70.7333 622.056 71 621.323 71H570.923ZM661.744 72C655.344 72 649.677 71.0333 644.744 69.1C639.877 67.1667 636.077 64.1667 633.344 60.1C630.61 56.0333 629.244 50.8667 629.244 44.6V3.7C629.244 2.96666 629.51 2.33333 630.044 1.8C630.577 1.26666 631.21 0.999995 631.944 0.999995H651.544C652.277 0.999995 652.91 1.26666 653.444 1.8C653.977 2.33333 654.244 2.96666 654.244 3.7V44.2C654.244 46.6667 654.844 48.5667 656.044 49.9C657.31 51.2333 659.177 51.9 661.644 51.9C664.11 51.9 665.944 51.2333 667.144 49.9C668.41 48.5667 669.044 46.6667 669.044 44.2V3.7C669.044 2.96666 669.31 2.33333 669.844 1.8C670.377 1.26666 671.01 0.999995 671.744 0.999995H691.344C692.077 0.999995 692.71 1.26666 693.244 1.8C693.777 2.33333 694.044 2.96666 694.044 3.7V44.6C694.044 50.8667 692.677 56.0333 689.944 60.1C687.21 64.1667 683.41 67.1667 678.544 69.1C673.677 71.0333 668.077 72 661.744 72ZM707.153 71C706.42 71 705.786 70.7333 705.253 70.2C704.72 69.6667 704.453 69.0333 704.453 68.3V3.7C704.453 2.96666 704.72 2.33333 705.253 1.8C705.786 1.26666 706.42 0.999995 707.153 0.999995H740.353C746.753 0.999995 751.986 1.79999 756.053 3.39999C760.12 4.93333 763.12 7.26666 765.053 10.4C767.053 13.4667 768.053 17.3333 768.053 22C768.053 24.1333 767.586 26.0667 766.653 27.8C765.786 29.4667 764.72 30.8667 763.453 32C762.253 33.1333 761.12 33.9667 760.053 34.5C762.586 35.5667 764.786 37.4333 766.653 40.1C768.586 42.7 769.553 45.6667 769.553 49C769.553 54 768.453 58.1333 766.253 61.4C764.053 64.6 760.853 67 756.653 68.6C752.52 70.2 747.42 71 741.353 71H707.153ZM729.453 53.8H738.753C740.42 53.8 741.586 53.2667 742.253 52.2C742.986 51.0667 743.353 49.9667 743.353 48.9C743.353 47.7 742.953 46.6 742.153 45.6C741.42 44.5333 740.286 44 738.753 44H729.453V53.8ZM729.453 27.3H737.853C739.32 27.3 740.353 26.8333 740.953 25.9C741.62 24.9 741.953 23.8667 741.953 22.8C741.953 21.7333 741.62 20.7 740.953 19.7C740.353 18.7 739.32 18.2 737.853 18.2H729.453V27.3Z" fill="#FF5B7C"/>
</svg>
