<svg width="186" height="19" viewBox="0 0 186 19" fill="none" xmlns="http://www.w3.org/2000/svg">
<path d="M8.928 18.24C7.392 18.24 6.032 18.016 4.848 17.568C3.664 17.12 2.72 16.416 2.016 15.456C1.328 14.496 0.952 13.256 0.888 11.736C0.872 11.08 0.864 10.376 0.864 9.624C0.864 8.872 0.872 8.152 0.888 7.464C0.952 5.976 1.336 4.752 2.04 3.792C2.76 2.832 3.712 2.12 4.896 1.656C6.096 1.192 7.44 0.959999 8.928 0.959999C9.952 0.959999 10.936 1.08 11.88 1.32C12.84 1.544 13.704 1.904 14.472 2.4C15.24 2.896 15.848 3.536 16.296 4.32C16.76 5.088 17 6.016 17.016 7.104C17.016 7.248 16.96 7.376 16.848 7.488C16.752 7.584 16.632 7.632 16.488 7.632H11.592C11.336 7.632 11.144 7.584 11.016 7.488C10.904 7.376 10.8 7.192 10.704 6.936C10.528 6.424 10.288 6.08 9.984 5.904C9.68 5.728 9.32 5.64 8.904 5.64C8.376 5.64 7.952 5.784 7.632 6.072C7.328 6.344 7.16 6.848 7.128 7.584C7.08 8.896 7.08 10.24 7.128 11.616C7.16 12.352 7.328 12.864 7.632 13.152C7.952 13.424 8.376 13.56 8.904 13.56C9.32 13.56 9.68 13.464 9.984 13.272C10.304 13.08 10.544 12.744 10.704 12.264C10.784 11.992 10.888 11.808 11.016 11.712C11.144 11.616 11.336 11.568 11.592 11.568H16.488C16.632 11.568 16.752 11.624 16.848 11.736C16.96 11.832 17.016 11.952 17.016 12.096C17 13.184 16.76 14.12 16.296 14.904C15.848 15.672 15.24 16.304 14.472 16.8C13.704 17.296 12.84 17.664 11.88 17.904C10.936 18.128 9.952 18.24 8.928 18.24ZM26.5056 18.24C24.9376 18.24 23.5616 18 22.3776 17.52C21.2096 17.04 20.2816 16.32 19.5936 15.36C18.9216 14.384 18.5536 13.184 18.4896 11.76C18.4736 11.104 18.4656 10.408 18.4656 9.672C18.4656 8.936 18.4736 8.224 18.4896 7.536C18.5536 6.128 18.9216 4.936 19.5936 3.96C20.2656 2.984 21.1936 2.24 22.3776 1.728C23.5616 1.216 24.9376 0.959999 26.5056 0.959999C28.0736 0.959999 29.4496 1.216 30.6336 1.728C31.8176 2.24 32.7456 2.984 33.4176 3.96C34.1056 4.936 34.4736 6.128 34.5216 7.536C34.5536 8.224 34.5696 8.936 34.5696 9.672C34.5696 10.408 34.5536 11.104 34.5216 11.76C34.4576 13.184 34.0816 14.384 33.3936 15.36C32.7216 16.32 31.7936 17.04 30.6096 17.52C29.4416 18 28.0736 18.24 26.5056 18.24ZM26.5056 13.56C27.0336 13.56 27.4576 13.408 27.7776 13.104C28.0976 12.784 28.2656 12.288 28.2816 11.616C28.3136 10.928 28.3296 10.248 28.3296 9.576C28.3296 8.904 28.3136 8.24 28.2816 7.584C28.2656 7.136 28.1776 6.768 28.0176 6.48C27.8736 6.192 27.6736 5.984 27.4176 5.856C27.1616 5.712 26.8576 5.64 26.5056 5.64C26.1696 5.64 25.8656 5.712 25.5936 5.856C25.3376 5.984 25.1296 6.192 24.9696 6.48C24.8256 6.768 24.7456 7.136 24.7296 7.584C24.7136 8.24 24.7056 8.904 24.7056 9.576C24.7056 10.248 24.7136 10.928 24.7296 11.616C24.7616 12.288 24.9296 12.784 25.2336 13.104C25.5536 13.408 25.9776 13.56 26.5056 13.56ZM44.3181 18.24C42.7501 18.24 41.3741 18 40.1901 17.52C39.0221 17.04 38.0941 16.32 37.4061 15.36C36.7341 14.384 36.3661 13.184 36.3021 11.76C36.2861 11.104 36.2781 10.408 36.2781 9.672C36.2781 8.936 36.2861 8.224 36.3021 7.536C36.3661 6.128 36.7341 4.936 37.4061 3.96C38.0781 2.984 39.0061 2.24 40.1901 1.728C41.3741 1.216 42.7501 0.959999 44.3181 0.959999C45.8861 0.959999 47.2621 1.216 48.4461 1.728C49.6301 2.24 50.5581 2.984 51.2301 3.96C51.9181 4.936 52.2861 6.128 52.3341 7.536C52.3661 8.224 52.3821 8.936 52.3821 9.672C52.3821 10.408 52.3661 11.104 52.3341 11.76C52.2701 13.184 51.8941 14.384 51.2061 15.36C50.5341 16.32 49.6061 17.04 48.4221 17.52C47.2541 18 45.8861 18.24 44.3181 18.24ZM44.3181 13.56C44.8461 13.56 45.2701 13.408 45.5901 13.104C45.9101 12.784 46.0781 12.288 46.0941 11.616C46.1261 10.928 46.1421 10.248 46.1421 9.576C46.1421 8.904 46.1261 8.24 46.0941 7.584C46.0781 7.136 45.9901 6.768 45.8301 6.48C45.6861 6.192 45.4861 5.984 45.2301 5.856C44.9741 5.712 44.6701 5.64 44.3181 5.64C43.9821 5.64 43.6781 5.712 43.4061 5.856C43.1501 5.984 42.9421 6.192 42.7821 6.48C42.6381 6.768 42.5581 7.136 42.5421 7.584C42.5261 8.24 42.5181 8.904 42.5181 9.576C42.5181 10.248 42.5261 10.928 42.5421 11.616C42.5741 12.288 42.7421 12.784 43.0461 13.104C43.3661 13.408 43.7901 13.56 44.3181 13.56ZM55.1946 18C55.0186 18 54.8666 17.936 54.7386 17.808C54.6106 17.68 54.5466 17.528 54.5466 17.352V1.848C54.5466 1.672 54.6106 1.52 54.7386 1.392C54.8666 1.264 55.0186 1.2 55.1946 1.2H59.7786C59.9546 1.2 60.1066 1.264 60.2346 1.392C60.3626 1.52 60.4266 1.672 60.4266 1.848V6.6L63.1386 1.728C63.2186 1.6 63.3306 1.48 63.4746 1.368C63.6346 1.256 63.8426 1.2 64.0986 1.2H69.4026C69.5466 1.2 69.6666 1.256 69.7626 1.368C69.8746 1.464 69.9306 1.584 69.9306 1.728C69.9306 1.824 69.9066 1.912 69.8586 1.992L65.5386 9.24L70.2666 17.208C70.3146 17.272 70.3386 17.36 70.3386 17.472C70.3386 17.616 70.2826 17.744 70.1706 17.856C70.0746 17.952 69.9546 18 69.8106 18H64.3386C64.0186 18 63.7786 17.928 63.6186 17.784C63.4746 17.624 63.3866 17.512 63.3546 17.448L60.4266 12.216V17.352C60.4266 17.528 60.3626 17.68 60.2346 17.808C60.1066 17.936 59.9546 18 59.7786 18H55.1946ZM72.3508 18C72.1748 18 72.0228 17.936 71.8948 17.808C71.7668 17.68 71.7028 17.528 71.7028 17.352V1.848C71.7028 1.672 71.7668 1.52 71.8948 1.392C72.0228 1.264 72.1748 1.2 72.3508 1.2H77.2468C77.4228 1.2 77.5748 1.264 77.7028 1.392C77.8308 1.52 77.8948 1.672 77.8948 1.848V17.352C77.8948 17.528 77.8308 17.68 77.7028 17.808C77.5748 17.936 77.4228 18 77.2468 18H72.3508ZM81.1868 18C81.0108 18 80.8588 17.936 80.7308 17.808C80.6028 17.68 80.5388 17.528 80.5388 17.352V1.848C80.5388 1.672 80.6028 1.52 80.7308 1.392C80.8588 1.264 81.0108 1.2 81.1868 1.2H88.0988C89.6028 1.2 90.9468 1.456 92.1308 1.968C93.3148 2.464 94.2588 3.2 94.9628 4.176C95.6828 5.152 96.0668 6.36 96.1148 7.8C96.1468 8.488 96.1628 9.096 96.1628 9.624C96.1628 10.136 96.1468 10.72 96.1148 11.376C96.0508 12.88 95.6828 14.128 95.0108 15.12C94.3388 16.096 93.4188 16.824 92.2508 17.304C91.0988 17.768 89.7548 18 88.2188 18H81.1868ZM86.5388 13.32H88.0988C88.4508 13.32 88.7628 13.256 89.0348 13.128C89.3228 12.984 89.5548 12.768 89.7308 12.48C89.9068 12.192 90.0028 11.824 90.0188 11.376C90.0508 10.912 90.0668 10.496 90.0668 10.128C90.0828 9.76 90.0828 9.392 90.0668 9.024C90.0668 8.64 90.0508 8.232 90.0188 7.8C89.9868 7.128 89.7708 6.64 89.3708 6.336C88.9868 6.032 88.5228 5.88 87.9788 5.88H86.5388V13.32ZM105.312 18.24C103.536 18.24 102.072 18 100.92 17.52C99.7684 17.04 98.9044 16.408 98.3284 15.624C97.7524 14.84 97.4484 14.008 97.4164 13.128C97.4164 12.984 97.4644 12.864 97.5604 12.768C97.6724 12.656 97.8004 12.6 97.9444 12.6H102.504C102.76 12.6 102.952 12.64 103.08 12.72C103.224 12.784 103.376 12.88 103.536 13.008C103.696 13.12 103.856 13.224 104.016 13.32C104.192 13.4 104.384 13.464 104.592 13.512C104.816 13.544 105.056 13.56 105.312 13.56C105.856 13.56 106.288 13.504 106.608 13.392C106.944 13.264 107.112 13.096 107.112 12.888C107.112 12.696 107.016 12.536 106.824 12.408C106.648 12.28 106.336 12.168 105.888 12.072C105.44 11.96 104.816 11.856 104.016 11.76C102.752 11.584 101.656 11.288 100.728 10.872C99.8004 10.456 99.0804 9.888 98.5684 9.168C98.0724 8.432 97.8244 7.536 97.8244 6.48C97.8244 5.392 98.1284 4.432 98.7364 3.6C99.3604 2.768 100.216 2.12 101.304 1.656C102.408 1.192 103.688 0.959999 105.144 0.959999C106.344 0.959999 107.408 1.12 108.336 1.44C109.264 1.744 110.048 2.152 110.688 2.664C111.328 3.16 111.816 3.696 112.152 4.272C112.488 4.848 112.664 5.4 112.68 5.928C112.68 6.072 112.624 6.2 112.512 6.312C112.416 6.408 112.304 6.456 112.176 6.456H107.376C107.152 6.456 106.968 6.424 106.824 6.36C106.696 6.296 106.56 6.2 106.416 6.072C106.336 5.992 106.184 5.904 105.96 5.808C105.752 5.696 105.48 5.64 105.144 5.64C104.744 5.64 104.448 5.704 104.256 5.832C104.08 5.944 103.992 6.104 103.992 6.312C103.992 6.456 104.064 6.592 104.208 6.72C104.352 6.848 104.616 6.96 105 7.056C105.384 7.152 105.936 7.248 106.656 7.344C108.256 7.536 109.536 7.848 110.496 8.28C111.472 8.696 112.176 9.256 112.608 9.96C113.056 10.664 113.28 11.536 113.28 12.576C113.28 13.744 112.928 14.752 112.224 15.6C111.536 16.448 110.592 17.104 109.392 17.568C108.192 18.016 106.832 18.24 105.312 18.24Z" fill="#9B33BD"/>
<path d="M127.1 18.24C125.564 18.24 124.204 18.016 123.02 17.568C121.836 17.12 120.892 16.416 120.188 15.456C119.5 14.496 119.124 13.256 119.06 11.736C119.044 11.08 119.036 10.376 119.036 9.624C119.036 8.872 119.044 8.152 119.06 7.464C119.124 5.976 119.508 4.752 120.212 3.792C120.932 2.832 121.884 2.12 123.068 1.656C124.268 1.192 125.612 0.959999 127.1 0.959999C128.124 0.959999 129.108 1.08 130.052 1.32C131.012 1.544 131.876 1.904 132.644 2.4C133.412 2.896 134.02 3.536 134.468 4.32C134.932 5.088 135.172 6.016 135.188 7.104C135.188 7.248 135.132 7.376 135.02 7.488C134.924 7.584 134.804 7.632 134.66 7.632H129.764C129.508 7.632 129.316 7.584 129.188 7.488C129.076 7.376 128.972 7.192 128.876 6.936C128.7 6.424 128.46 6.08 128.156 5.904C127.852 5.728 127.492 5.64 127.076 5.64C126.548 5.64 126.124 5.784 125.804 6.072C125.5 6.344 125.332 6.848 125.3 7.584C125.252 8.896 125.252 10.24 125.3 11.616C125.332 12.352 125.5 12.864 125.804 13.152C126.124 13.424 126.548 13.56 127.076 13.56C127.492 13.56 127.852 13.464 128.156 13.272C128.476 13.08 128.716 12.744 128.876 12.264C128.956 11.992 129.06 11.808 129.188 11.712C129.316 11.616 129.508 11.568 129.764 11.568H134.66C134.804 11.568 134.924 11.624 135.02 11.736C135.132 11.832 135.188 11.952 135.188 12.096C135.172 13.184 134.932 14.12 134.468 14.904C134.02 15.672 133.412 16.304 132.644 16.8C131.876 17.296 131.012 17.664 130.052 17.904C129.108 18.128 128.124 18.24 127.1 18.24ZM137.741 18C137.565 18 137.413 17.936 137.285 17.808C137.157 17.68 137.093 17.528 137.093 17.352V1.848C137.093 1.672 137.157 1.52 137.285 1.392C137.413 1.264 137.565 1.2 137.741 1.2H142.541C142.717 1.2 142.869 1.264 142.997 1.392C143.125 1.52 143.189 1.672 143.189 1.848V13.08H149.837C150.013 13.08 150.165 13.144 150.293 13.272C150.421 13.4 150.485 13.552 150.485 13.728V17.352C150.485 17.528 150.421 17.68 150.293 17.808C150.165 17.936 150.013 18 149.837 18H137.741ZM159.539 18.24C158.003 18.24 156.643 18.008 155.459 17.544C154.291 17.08 153.379 16.36 152.723 15.384C152.067 14.408 151.739 13.168 151.739 11.664V1.848C151.739 1.672 151.803 1.52 151.931 1.392C152.059 1.264 152.211 1.2 152.387 1.2H157.091C157.267 1.2 157.419 1.264 157.547 1.392C157.675 1.52 157.739 1.672 157.739 1.848V11.568C157.739 12.16 157.883 12.616 158.171 12.936C158.475 13.256 158.923 13.416 159.515 13.416C160.107 13.416 160.547 13.256 160.835 12.936C161.139 12.616 161.291 12.16 161.291 11.568V1.848C161.291 1.672 161.355 1.52 161.483 1.392C161.611 1.264 161.763 1.2 161.939 1.2H166.643C166.819 1.2 166.971 1.264 167.099 1.392C167.227 1.52 167.291 1.672 167.291 1.848V11.664C167.291 13.168 166.963 14.408 166.307 15.384C165.651 16.36 164.739 17.08 163.571 17.544C162.403 18.008 161.059 18.24 159.539 18.24ZM170.437 18C170.261 18 170.109 17.936 169.981 17.808C169.853 17.68 169.789 17.528 169.789 17.352V1.848C169.789 1.672 169.853 1.52 169.981 1.392C170.109 1.264 170.261 1.2 170.437 1.2H178.405C179.941 1.2 181.197 1.392 182.173 1.776C183.149 2.144 183.869 2.704 184.333 3.456C184.813 4.192 185.053 5.12 185.053 6.24C185.053 6.752 184.941 7.216 184.717 7.632C184.509 8.032 184.253 8.368 183.949 8.64C183.661 8.912 183.389 9.112 183.133 9.24C183.741 9.496 184.269 9.944 184.717 10.584C185.181 11.208 185.413 11.92 185.413 12.72C185.413 13.92 185.149 14.912 184.621 15.696C184.093 16.464 183.325 17.04 182.317 17.424C181.325 17.808 180.101 18 178.645 18H170.437ZM175.789 13.872H178.021C178.421 13.872 178.701 13.744 178.861 13.488C179.037 13.216 179.125 12.952 179.125 12.696C179.125 12.408 179.029 12.144 178.837 11.904C178.661 11.648 178.389 11.52 178.021 11.52H175.789V13.872ZM175.789 7.512H177.805C178.157 7.512 178.405 7.4 178.549 7.176C178.709 6.936 178.789 6.688 178.789 6.432C178.789 6.176 178.709 5.928 178.549 5.688C178.405 5.448 178.157 5.328 177.805 5.328H175.789V7.512Z" fill="#FF5B7C"/>
</svg>
